<svg width="163" height="40" viewBox="0 0 163 40" fill="none" xmlns="http://www.w3.org/2000/svg">
<g clip-path="url(#clip0_3003_6885)">
<path d="M29.1581 27.4251H32.2652L30.4726 36.5269H27.2461L29.1581 27.4251ZM29.2776 24.9102C29.2776 23.8323 30.1141 23.1138 31.3091 23.1138C32.3847 23.1138 33.1017 23.7126 33.1017 24.6707C33.1017 25.7485 32.2652 26.5868 31.0701 26.5868C29.9946 26.4671 29.2776 25.7485 29.2776 24.9102Z" fill="white"/>
<path d="M44.0958 27.4252L42.6618 34.8503C41.9448 38.4431 39.9132 40 36.6867 40C34.8942 40 33.3406 39.6408 32.2651 38.8024L33.6992 36.527C34.4162 37.1258 35.6112 37.4851 36.8062 37.4851C38.4792 37.4851 39.1962 36.7665 39.4352 35.4491L39.5547 35.0899C38.8377 35.6887 38.0012 36.0479 37.0452 36.0479C34.8942 36.0479 33.1016 34.6108 33.1016 32.2156C33.1016 29.4611 35.2527 27.3054 38.1207 27.3054C39.4352 27.3054 40.5107 27.7845 40.9887 28.8623L41.2277 27.4252H44.0958ZM39.9132 31.3773C39.9132 30.539 39.3157 29.9402 38.2402 29.9402C36.9257 29.9402 36.0892 30.7785 36.0892 32.0958C36.0892 32.9342 36.6867 33.533 37.7622 33.533C39.0767 33.533 39.9132 32.6946 39.9132 31.3773Z" fill="white"/>
<path d="M46.1275 27.4251H49.354L47.5615 36.5269H44.335L46.1275 27.4251ZM46.3665 24.9102C46.3665 23.8323 47.203 23.1138 48.398 23.1138C49.4735 23.1138 50.1905 23.7126 50.1905 24.6707C50.1905 25.7485 49.354 26.5868 48.159 26.5868C47.0835 26.4671 46.3665 25.7485 46.3665 24.9102Z" fill="white"/>
<path d="M53.7756 33.1736C53.7756 33.2934 53.7756 33.4131 53.7756 33.5329C53.7756 34.0119 54.0146 34.2514 54.6121 34.2514C54.9706 34.2514 55.2096 34.1317 55.5681 34.0119L55.9266 36.1676C55.2096 36.5269 54.3731 36.6466 53.5366 36.6466C51.6246 36.6466 50.4295 35.6886 50.4295 34.0119C50.4295 33.7724 50.4295 33.4131 50.549 33.1736L51.1465 30.1796H49.832L50.31 27.7844H51.6246L52.1026 25.3892H55.3291L54.8511 27.7844H56.8826L56.4046 30.1796H54.3731L53.7756 33.1736Z" fill="white"/>
<path d="M68.2349 27.4251L66.4423 36.5269H63.4548L63.6938 35.6885C62.9768 36.2873 62.1403 36.6466 61.0648 36.6466C59.1527 36.6466 57.2407 35.2095 57.2407 32.455C57.2407 29.461 59.5112 27.1855 62.1403 27.1855C63.3353 27.1855 64.4108 27.5448 64.8888 28.3832L65.1278 27.3053H68.2349V27.4251ZM64.1718 31.6167C64.1718 30.5388 63.5743 29.8203 62.4988 29.8203C61.1843 29.8203 60.3478 30.8981 60.3478 32.3352C60.3478 33.4131 60.9453 34.0119 62.0208 34.0119C63.3353 34.1317 64.1718 33.1736 64.1718 31.6167Z" fill="white"/>
<path d="M70.9837 24.0718H74.0907L71.7007 36.6466H68.4741L70.9837 24.0718Z" fill="white"/>
<path d="M89.9844 27.4251L88.1919 36.5269H85.2043L85.4433 35.6885C84.7263 36.2873 83.8898 36.6466 82.8143 36.6466C80.9023 36.6466 78.9902 35.2095 78.9902 32.455C78.9902 29.461 81.2608 27.1855 83.8898 27.1855C85.0848 27.1855 86.1603 27.5448 86.6383 28.3832L86.8773 27.3053H89.9844V27.4251ZM86.0408 31.6167C86.0408 30.5388 85.4433 29.8203 84.3678 29.8203C83.0533 29.8203 82.2168 30.8981 82.2168 32.3352C82.2168 33.4131 82.8143 34.0119 83.8898 34.0119C85.0848 34.1317 86.0408 33.1736 86.0408 31.6167Z" fill="white"/>
<path d="M90.582 32.5749C90.582 29.5809 92.9721 27.3054 96.1986 27.3054C98.2301 27.3054 99.7836 28.2635 100.501 29.8204L97.7521 31.1378C97.3936 30.2994 96.7961 29.9402 95.9596 29.9402C94.6451 29.9402 93.6891 31.018 93.6891 32.4551C93.6891 33.533 94.2866 34.2515 95.4816 34.2515C96.3181 34.2515 96.9156 33.8922 97.3936 33.0539L99.7836 34.491C98.9471 35.9282 97.2741 36.8863 95.2426 36.8863C92.3745 36.7665 90.582 35.0899 90.582 32.5749Z" fill="white"/>
<path d="M111.614 27.4251L109.822 36.5269H106.834L107.073 35.6885C106.356 36.2873 105.52 36.6466 104.444 36.6466C102.532 36.6466 100.62 35.2095 100.62 32.455C100.62 29.461 102.891 27.1855 105.52 27.1855C106.715 27.1855 107.79 27.5448 108.268 28.3832L108.507 27.3053H111.614V27.4251ZM107.671 31.6167C107.671 30.5388 107.073 29.8203 105.998 29.8203C104.683 29.8203 103.847 30.8981 103.847 32.3352C103.847 33.4131 104.444 34.0119 105.52 34.0119C106.715 34.1317 107.671 33.1736 107.671 31.6167Z" fill="white"/>
<path d="M124.042 24.0718L121.533 36.5269H118.545L118.784 35.6885C118.067 36.2873 117.231 36.7664 116.155 36.7664C114.243 36.7664 112.331 35.3293 112.331 32.5748C112.331 29.5808 114.602 27.3053 117.231 27.3053C118.426 27.3053 119.382 27.6646 119.979 28.5029L120.816 24.0718H124.042ZM119.382 31.6167C119.382 30.5388 118.784 29.8203 117.709 29.8203C116.394 29.8203 115.558 30.8981 115.558 32.3352C115.558 33.4131 116.155 34.0119 117.231 34.0119C118.426 34.1317 119.382 33.1736 119.382 31.6167Z" fill="white"/>
<path d="M133.722 32.8144H127.03C127.149 33.7725 127.866 34.2515 129.061 34.2515C129.898 34.2515 130.615 34.012 131.212 33.533L132.527 35.5689C131.332 36.4072 130.017 36.7665 128.703 36.7665C125.835 36.7665 123.923 35.2096 123.923 32.5749C123.923 29.5809 126.193 27.3054 129.42 27.3054C132.168 27.3054 133.841 28.8623 133.841 31.2575C133.841 31.8563 133.841 32.3354 133.722 32.8144ZM127.149 31.1378H130.854C130.854 30.1797 130.137 29.5809 129.181 29.5809C128.225 29.5809 127.508 30.2994 127.149 31.1378Z" fill="white"/>
<path d="M150.93 30.419C150.93 30.7783 150.93 31.1376 150.81 31.4969L149.854 36.5268H146.628L147.584 31.8562C147.584 31.6166 147.703 31.3771 147.703 31.2574C147.703 30.419 147.225 30.0598 146.508 30.0598C145.552 30.0598 144.835 30.6586 144.596 31.9759L143.64 36.5268H140.414L141.37 31.8562C141.37 31.6166 141.489 31.3771 141.489 31.2574C141.489 30.419 141.011 30.0598 140.294 30.0598C139.338 30.0598 138.621 30.6586 138.382 32.0957L137.426 36.6466H134.2L135.992 27.5448H138.98L138.741 28.5029C139.458 27.7843 140.414 27.425 141.489 27.425C142.684 27.425 143.76 27.9041 144.238 28.8622C145.074 27.9041 146.269 27.425 147.584 27.425C149.615 27.3053 150.93 28.3831 150.93 30.419Z" fill="white"/>
<path d="M163 27.4251L157.144 36.8861C155.71 39.1616 154.515 39.8802 152.603 39.8802C151.647 39.8802 150.572 39.5209 150.094 39.0418L151.528 36.7664C151.886 37.1257 152.364 37.2454 152.962 37.2454C153.559 37.2454 153.918 37.0059 154.276 36.4071L152.245 27.1855H155.471L156.666 32.8143L160.012 27.1855H163V27.4251Z" fill="white"/>
<path d="M34.7747 6.70647L34.6552 7.06576C33.6992 9.3412 31.5482 11.0179 29.0386 11.2574C28.9191 11.2574 28.7996 11.2574 28.6801 11.2574L19.12 11.6167C18.164 11.6167 17.208 12.2155 16.8495 13.0538H29.1581L28.2021 17.2454H11.2329L12.3084 12.455C13.1449 9.46097 15.774 7.30528 18.881 7.18552L29.1581 6.58671C29.6361 6.58671 29.9946 6.34719 30.2336 5.86815C30.3531 5.62863 30.3531 5.50887 30.3531 5.26935C30.3531 4.67055 29.8751 4.07174 29.1581 4.07174H25.5731C24.6171 4.07174 23.7806 4.67055 23.5416 5.62863H17.686L18.2835 4.31126C19.7175 0.957971 23.0636 -0.119873 26.7681 -0.119873H29.6361C33.6992 -0.000112571 36.0892 2.87414 34.7747 6.70647Z" fill="white"/>
<path d="M0 15.5688L3.94355 14.97L0.717009 28.982H6.81158L11.2331 9.58081H5.85557L0.83651 10.2994L0 15.5688Z" fill="white"/>
<path d="M15.0574 19.5208H18.0449C23.4225 19.5208 27.4856 24.4309 26.41 29.7004C25.5735 33.6525 22.108 36.6465 18.0449 36.6465H4.78027L5.61678 32.3351H17.9254C19.957 32.3351 21.7495 30.898 22.108 28.8621C22.586 26.2273 20.5545 23.7124 17.9254 23.7124H14.1014L15.0574 19.5208Z" fill="white"/>
</g>
<defs>
<clipPath id="clip0_3003_6885">
<rect width="163" height="40" fill="white"/>
</clipPath>
</defs>
</svg>
